<mxfile host="app.diagrams.net" modified="2024-02-06T12:45:07.370Z" agent="Mozilla/5.0 (X11; Linux x86_64; rv:103.0) Gecko/20100101 Firefox/103.0" version="23.1.1" etag="nKweoBBXXsSiWQh0ExHl" type="github">
  <diagram name="PÃ¡gina-1" id="7slWZZM0aHObhyz-kDOw">
    <mxGraphModel>
      <root>
        <mxCell id="0" />
        <mxCell id="1" parent="0" />
      </root>
    </mxGraphModel>
  </diagram>
</mxfile>
